<svg width="1047" height="70" viewBox="0 0 1047 70" fill="none" xmlns="http://www.w3.org/2000/svg">
<path fill-rule="evenodd" clip-rule="evenodd" d="M1046.92 69.5933L521.674 69.5933L589.819 0.213267L654.645 66.2133L719.47 0.213255L784.295 66.2133L849.12 0.213244L913.945 66.2133L978.775 0.21327L1046.92 69.5933ZM910.626 66.8333L849.12 4.21322L787.615 66.8333L910.626 66.8333ZM917.265 66.8333L1040.28 66.8333L978.775 4.21318L917.265 66.8333ZM651.325 66.8333L589.819 4.21325L528.314 66.8333L651.325 66.8333ZM657.964 66.8333L780.975 66.8333L719.47 4.21324L657.964 66.8333Z" fill="#E17474" fill-opacity="0.6" style="mix-blend-mode:soft-light"/>
<path fill-rule="evenodd" clip-rule="evenodd" d="M525.333 69.5933L0.0872803 69.5933L68.2323 0.213267L133.058 66.2133L197.883 0.213255L262.708 66.2133L327.533 0.213244L392.359 66.2133L457.188 0.21327L525.333 69.5933ZM389.039 66.8333L327.533 4.21322L266.028 66.8333L389.039 66.8333ZM395.678 66.8333L518.694 66.8333L457.188 4.21318L395.678 66.8333ZM129.738 66.8333L68.2323 4.21325L6.72687 66.8333L129.738 66.8333ZM136.377 66.8333L259.388 66.8333L197.883 4.21324L136.377 66.8333Z" fill="#E17474" fill-opacity="0.6" style="mix-blend-mode:soft-light"/>
</svg>
